HIERARCHY
ROOT SpineBase
{
  OFFSET 0.000000 0.000000 0.000000
  CHANNELS 6 Xposition Yposition Zposition Zrotation Xrotation Yrotation
  JOINT SpineMid
  {
    OFFSET 0.000000 29.209517 0.000000
    CHANNELS 3 Zrotation Xrotation Yrotation
    JOINT SpineShoulder
    {
      OFFSET 0.077701 21.646427 -0.626375
      CHANNELS 3 Zrotation Xrotation Yrotation
      JOINT Neck
      {
        OFFSET 0.081570 7.157757 -0.531501
        CHANNELS 3 Zrotation Xrotation Yrotation
        JOINT Head
        {
          OFFSET -4.149362 12.653518 -1.964383
          CHANNELS 3 Zrotation Xrotation Yrotation
          End Site
          {
            OFFSET 0 0 0
          }
        }
      }
      JOINT ShoulderLeft
      {
        OFFSET -16.043851 -4.335426 6.552275
        CHANNELS 3 Zrotation Xrotation Yrotation
        JOINT ElbowLeft
        {
          OFFSET -0.797962 -26.466230 2.411637
          CHANNELS 3 Zrotation Xrotation Yrotation
          JOINT WristLeft
          {
            OFFSET 0.204650 -19.392574 -4.503862
            CHANNELS 3 Zrotation Xrotation Yrotation
            JOINT HandLeft
            {
              OFFSET 0.879515 -4.018232 -1.065007
              CHANNELS 3 Zrotation Xrotation Yrotation
              JOINT HandTipLeft
              {
                OFFSET 0.655460 -7.290166 -0.054577
                CHANNELS 3 Zrotation Xrotation Yrotation
                End Site
                {
                  OFFSET 0 0 0
                }
              }
              JOINT ThumbLeft
              {
                OFFSET -1.731430 -2.059030 -2.189288
                CHANNELS 3 Zrotation Xrotation Yrotation
                End Site
                {
                  OFFSET 0 0 0
                }
              }
            }
          }
        }
      }
      JOINT ShoulderRight
      {
        OFFSET 14.242992 -2.664803 -7.542968
        CHANNELS 3 Zrotation Xrotation Yrotation
        JOINT ElbowRight
        {
          OFFSET 6.442024 -24.830074 -1.021338
          CHANNELS 3 Zrotation Xrotation Yrotation
          JOINT WristRight
          {
            OFFSET -0.776366 -19.504351 -4.525281
            CHANNELS 3 Zrotation Xrotation Yrotation
            JOINT HandRight
            {
              OFFSET -1.453375 -6.033764 0.140088
              CHANNELS 3 Zrotation Xrotation Yrotation
              JOINT HandTipRight
              {
                OFFSET 0.457728 -5.989144 -1.189235
                CHANNELS 3 Zrotation Xrotation Yrotation
                End Site
                {
                  OFFSET 0 0 0
                }
              }
              JOINT ThumbRight
              {
                OFFSET -3.161048 1.115934 -0.687193
                CHANNELS 3 Zrotation Xrotation Yrotation
                End Site
                {
                  OFFSET 0 0 0
                }
              }
            }
          }
        }
      }
    }
  }
  JOINT HipLeft
  {
    OFFSET -6.353051 0.152467 -0.720511
    CHANNELS 3 Zrotation Xrotation Yrotation
    JOINT KneeLeft
    {
      OFFSET 5.667824 -30.194816 6.477401
      CHANNELS 3 Zrotation Xrotation Yrotation
      JOINT AnkleLeft
      {
        OFFSET 6.063972 -30.470336 3.416559
        CHANNELS 3 Zrotation Xrotation Yrotation
        JOINT FootLeft
        {
          OFFSET -2.917228 -4.059621 -11.691275
          CHANNELS 3 Zrotation Xrotation Yrotation
          End Site
          {
            OFFSET 0 0 0
          }
        }
      }
    }
  }
  JOINT HipRight
  {
    OFFSET 6.960606 1.562805 -5.834336
    CHANNELS 3 Zrotation Xrotation Yrotation
    JOINT KneeRight
    {
      OFFSET 7.441077 -27.274690 2.385981
      CHANNELS 3 Zrotation Xrotation Yrotation
      JOINT AnkleRight
      {
        OFFSET 2.456389 -34.007198 7.022280
        CHANNELS 3 Zrotation Xrotation Yrotation
        JOINT FootRight
        {
          OFFSET -2.887594 -7.646537 -3.968658
          CHANNELS 3 Zrotation Xrotation Yrotation
          End Site
          {
            OFFSET 0 0 0
          }
        }
      }
    }
  }
}
MOTION
Frames: 11
Frame Time: 0.033333
-28.991532 66.030492 344.993538 0.870528 -5.131255 24.846320 -0.682212 -0.576607 -24.752208 0.550748 -0.015578 0.080895 10.191227 21.175417 3.935031 0.000000 0.000000 0.000000 -2.571863 5.510004 -0.063301 3.635441 -7.800278 -0.324095 -22.490667 -29.024441 -6.756293 57.210261 67.103862 -31.026279 0.000000 0.000000 0.000000 0.000000 0.000000 0.000000 -97.740706 44.726936 82.506333 -0.510978 0.208520 -15.648890 -9.136328 7.822325 -37.184522 -28.659719 -28.206525 -1.923313 0.000000 0.000000 0.000000 0.000000 0.000000 0.000000 -2.967453 5.154498 -25.656623 3.409177 2.677030 1.260355 9.792770 -26.846406 -19.995393 0.000000 0.000000 0.000000 2.353870 8.529061 -24.050884 1.262675 -6.218133 -0.882953 2.182504 5.191560 -2.654818 0.000000 0.000000 0.000000
-28.970351 66.118938 344.881052 0.874085 -5.134671 25.630389 -0.573907 -0.481947 -25.537423 0.464630 0.040353 0.080617 10.611744 21.225039 3.986934 0.000000 0.000000 0.000000 -2.557085 5.330078 -0.067362 4.037490 -7.527547 -0.395885 -26.635515 -32.302580 -8.137296 63.979085 66.986538 -35.991310 0.000000 0.000000 0.000000 0.000000 0.000000 0.000000 -97.735642 44.667554 82.394894 -1.063212 0.393674 -15.922784 -9.219292 7.377496 -37.544655 -28.171968 -27.928937 -1.197217 0.000000 0.000000 0.000000 0.000000 0.000000 0.000000 -2.878028 5.253363 -26.432409 3.156945 2.551847 1.219830 11.051219 -30.659370 -28.244110 0.000000 0.000000 0.000000 2.391345 8.322659 -24.884817 1.267792 -6.175312 -0.841771 1.885398 5.526972 -2.550258 0.000000 0.000000 0.000000
-28.978889 66.143406 344.811111 0.842115 -5.239326 25.084919 -0.431660 -0.397824 -24.995136 0.393224 0.070652 0.080677 10.849846 21.541059 4.067735 0.000000 0.000000 0.000000 -2.540427 5.264817 -0.068547 4.402058 -7.352637 -0.461597 -28.397936 -30.982740 -7.147977 81.782316 67.406616 -50.027068 0.000000 0.000000 0.000000 0.000000 0.000000 0.000000 -97.493268 44.913522 82.375309 -1.679299 0.654829 -16.253689 -10.393079 6.976083 -38.609250 -25.998427 -26.921340 1.957341 0.000000 0.000000 0.000000 0.000000 0.000000 0.000000 -2.846928 5.120699 -25.904256 2.990860 2.632140 1.207311 10.393441 -26.162471 -22.694350 0.000000 0.000000 0.000000 2.465998 8.588890 -24.301171 1.167383 -6.441056 -0.920560 1.823789 5.344779 -2.339628 0.000000 0.000000 0.000000
-28.902303 66.130657 344.635677 0.885991 -5.239480 24.326812 -0.357896 -0.343678 -24.234690 0.347868 0.090222 0.082478 11.101849 21.887050 4.162929 0.000000 0.000000 0.000000 -2.576475 5.162798 -0.071935 4.670209 -7.246058 -0.510225 -28.643945 -31.303463 -7.233313 95.955662 68.900570 -63.010882 0.000000 0.000000 0.000000 0.000000 0.000000 0.000000 -98.781482 44.513856 83.444292 -1.305469 -0.430703 -16.701477 -9.767140 6.812952 -38.074126 -26.257964 -28.170879 -0.291907 0.000000 0.000000 0.000000 0.000000 0.000000 0.000000 -3.287023 4.715487 -25.247308 3.134125 3.041218 1.300356 10.379904 -26.362214 -22.435082 0.000000 0.000000 0.000000 2.194680 8.680257 -23.531369 1.199238 -6.533202 -0.936901 2.071369 5.345481 -2.375414 0.000000 0.000000 0.000000
-28.801315 66.098612 344.453311 0.946517 -5.204258 23.223030 -0.305508 -0.312879 -23.127455 0.317490 0.109710 0.084805 11.329368 22.118239 4.233078 0.000000 0.000000 0.000000 -2.633563 5.055717 -0.076064 4.791087 -7.251472 -0.531349 -29.272019 -33.806306 -8.666197 108.259464 70.377061 -75.613608 0.000000 0.000000 0.000000 0.000000 0.000000 0.000000 -98.920146 44.503312 83.498437 -1.164084 -0.363331 -16.642568 -11.643591 6.871288 -39.558196 -23.857544 -29.811779 -1.445724 0.000000 0.000000 0.000000 0.000000 0.000000 0.000000 -3.954412 4.198093 -24.289663 3.621140 3.593947 1.453555 10.434965 -28.648176 -23.348062 0.000000 0.000000 0.000000 1.809090 8.805401 -22.399299 1.244580 -6.573724 -0.961673 2.665175 4.968993 -2.480994 0.000000 0.000000 0.000000
-28.682677 66.049699 344.255594 1.010968 -5.159052 22.244022 -0.248333 -0.281119 -22.145040 0.297260 0.148816 0.087308 11.563395 22.282616 4.298019 0.000000 0.000000 0.000000 -2.711519 4.918060 -0.081660 4.926087 -7.240185 -0.555226 -29.684863 -33.614034 -8.486215 94.938246 69.387501 -62.800780 0.000000 0.000000 0.000000 0.000000 0.000000 0.000000 -98.226855 45.279185 83.375055 -1.641535 -0.077118 -16.986623 -14.385843 7.539256 -41.375011 -19.423808 -31.790988 -1.875435 0.000000 0.000000 0.000000 0.000000 0.000000 0.000000 -4.715727 3.630205 -23.490107 4.627711 3.692328 1.536233 8.727960 -25.293452 -15.772148 0.000000 0.000000 0.000000 1.334430 8.853786 -21.409421 1.388059 -6.563198 -0.950636 3.357622 4.614219 -2.657097 0.000000 0.000000 0.000000
-28.506786 66.079605 343.967868 1.131567 -5.004236 21.751756 -0.247528 -0.274597 -21.645752 0.267316 0.170787 0.090277 11.769715 22.333492 4.360108 0.000000 0.000000 0.000000 -2.797310 4.734345 -0.088886 5.038806 -7.237039 -0.574999 -30.735316 -34.819196 -9.175793 96.611005 69.542366 -64.386125 0.000000 0.000000 0.000000 0.000000 0.000000 0.000000 -98.286958 45.678829 83.738928 -1.431767 -0.502151 -17.259119 -15.338706 8.322759 -41.699001 -18.706132 -32.350725 -2.240936 0.000000 0.000000 0.000000 0.000000 0.000000 0.000000 -5.826971 3.008228 -23.246875 5.258640 4.515496 1.769015 8.637947 -25.684437 -14.372575 0.000000 0.000000 0.000000 0.570801 8.537571 -20.980680 1.691143 -6.207429 -0.834952 3.936146 4.364397 -2.800285 0.000000 0.000000 0.000000
-28.337074 66.132424 343.711814 1.235249 -4.882362 21.540389 -0.229946 -0.255260 -21.428821 0.245939 0.205030 0.092983 12.022731 22.345765 4.407559 0.000000 0.000000 0.000000 -2.887589 4.553807 -0.096434 5.134145 -7.240431 -0.591576 -31.682757 -34.580830 -8.972671 85.069228 67.275428 -52.956860 0.000000 0.000000 0.000000 0.000000 0.000000 0.000000 -98.983244 45.741920 84.509698 -1.379748 -1.314704 -17.806721 -14.675592 9.258485 -40.809377 -19.358494 -31.168490 -0.401635 0.000000 0.000000 0.000000 0.000000 0.000000 0.000000 -6.081478 2.732228 -23.083011 5.280260 4.723928 1.802997 8.758438 -26.235854 -14.665274 0.000000 0.000000 0.000000 -0.129929 8.229590 -20.844271 1.965497 -5.846324 -0.728171 4.684495 4.208516 -3.052242 0.000000 0.000000 0.000000
-28.274078 66.125484 343.613129 1.196317 -4.931654 20.019543 -0.104861 -0.171808 -19.912650 0.261110 0.235580 0.094074 12.320272 22.359830 4.421913 0.000000 0.000000 0.000000 -2.944923 4.448290 -0.101117 5.217517 -7.243712 -0.606030 -32.434157 -33.909515 -8.490761 88.797091 65.487785 -55.043963 0.000000 0.000000 0.000000 0.000000 0.000000 0.000000 -99.678001 45.640161 85.162017 -0.969425 -1.783133 -17.916053 -13.271426 9.812211 -39.692857 -21.629026 -30.556305 -0.562578 0.000000 0.000000 0.000000 0.000000 0.000000 0.000000 -6.612605 2.358445 -21.712256 5.656837 5.154997 1.928483 9.118730 -26.855468 -17.406127 0.000000 0.000000 0.000000 -0.183301 8.632302 -19.215586 1.864394 -6.312355 -0.863285 5.185891 4.201838 -3.237630 0.000000 0.000000 0.000000
-28.109585 66.140348 343.484959 1.324201 -4.838420 19.445940 -0.158796 -0.167598 -19.330220 0.230193 0.257758 0.095404 12.399458 22.434228 4.470786 0.000000 0.000000 0.000000 -2.987752 4.346650 -0.105320 5.264808 -7.259807 -0.613855 -33.813812 -34.411079 -8.773455 121.775926 65.164524 -83.892622 0.000000 0.000000 0.000000 0.000000 0.000000 0.000000 -103.007285 43.815380 87.262372 1.598128 -4.258748 -17.466336 -8.366865 10.235748 -35.980669 -28.745897 -31.763956 -7.185907 0.000000 0.000000 0.000000 0.000000 0.000000 0.000000 -7.194211 2.038393 -21.254404 5.951958 5.507176 2.026903 9.600733 -28.063247 -21.258797 0.000000 0.000000 0.000000 -0.935362 8.530411 -18.664731 2.306681 -6.143697 -0.766794 5.355009 4.544807 -3.437395 0.000000 0.000000 0.000000
-27.972975 66.288286 343.363043 1.430873 -4.687029 20.905992 -0.233671 -0.212244 -20.783529 0.184689 0.275133 0.095709 12.392630 22.484054 4.525008 0.000000 0.000000 0.000000 -3.000642 4.248685 -0.108495 5.303853 -7.265967 -0.620423 -33.677014 -33.284460 -8.011637 125.814715 64.313633 -86.752652 0.000000 0.000000 0.000000 0.000000 0.000000 0.000000 -104.226261 42.848643 87.692622 2.146458 -4.629191 -17.267934 -6.609092 10.525625 -34.978434 -28.574522 -31.863546 -6.817293 0.000000 0.000000 0.000000 0.000000 0.000000 0.000000 -7.432391 2.248353 -22.715621 5.199661 5.057680 1.956696 11.082516 -29.650912 -25.709472 0.000000 0.000000 0.000000 -1.585453 7.829656 -20.327788 2.753146 -5.349648 -0.517994 5.448528 4.953788 -3.622904 0.000000 0.000000 0.000000
